<svg xmlns="http://www.w3.org/2000/svg" xmlns:xlink="http://www.w3.org/1999/xlink" width="500" zoomAndPan="magnify" viewBox="0 0 375 374.999991" height="500" preserveAspectRatio="xMidYMid meet" version="1.0"><defs><g/><clipPath id="b3ae136f67"><path d="M 109.367188 104.386719 L 265.367188 104.386719 L 265.367188 189.785156 L 109.367188 189.785156 Z M 109.367188 104.386719 " clip-rule="nonzero"/></clipPath></defs><rect x="-37.5" width="450" fill="#ffffff" y="-37.499999" height="449.999989" fill-opacity="1"/><rect x="-37.5" width="450" fill="#ffffff" y="-37.499999" height="449.999989" fill-opacity="1"/><g fill="#ffad6a" fill-opacity="1"><g transform="translate(104.460935, 244.186184)"><g><path d="M 19.5 0 L 1.5 0 L 1.5 -50 L 39.296875 -50 L 39.296875 -29.25 L 38.796875 -29.25 C 37.628906 -33.75 36.144531 -37.316406 34.34375 -39.953125 C 32.550781 -42.585938 30.425781 -44.53125 27.96875 -45.78125 C 25.519531 -47.03125 22.695312 -47.800781 19.5 -48.09375 L 19.5 -27.796875 C 20.164062 -27.992188 20.863281 -28.523438 21.59375 -29.390625 C 22.332031 -30.265625 23.015625 -31.332031 23.640625 -32.59375 C 24.273438 -33.863281 24.832031 -35.222656 25.3125 -36.671875 C 25.800781 -38.117188 26.128906 -39.546875 26.296875 -40.953125 L 26.796875 -40.953125 L 26.796875 -13.703125 L 26.296875 -13.703125 C 26.128906 -15.097656 25.800781 -16.519531 25.3125 -17.96875 C 24.832031 -19.425781 24.273438 -20.785156 23.640625 -22.046875 C 23.015625 -23.316406 22.332031 -24.382812 21.59375 -25.25 C 20.863281 -26.113281 20.164062 -26.644531 19.5 -26.84375 Z M 19.5 0 "/></g></g></g><g fill="#ffad6a" fill-opacity="1"><g transform="translate(145.00466, 244.186184)"><g><path d="M 1.5 -50 L 17.84375 -50 C 18.113281 -49.363281 18.304688 -48.695312 18.421875 -48 C 18.535156 -47.300781 18.59375 -46.601562 18.59375 -45.90625 C 18.59375 -44.238281 18.273438 -42.503906 17.640625 -40.703125 C 17.015625 -38.898438 16.21875 -37.054688 15.25 -35.171875 C 14.28125 -33.285156 13.253906 -31.382812 12.171875 -29.46875 C 11.085938 -27.550781 10.0625 -25.632812 9.09375 -23.71875 C 8.132812 -21.800781 7.34375 -19.925781 6.71875 -18.09375 C 6.101562 -16.257812 5.796875 -14.476562 5.796875 -12.75 C 5.796875 -11.914062 5.9375 -10.941406 6.21875 -9.828125 C 6.507812 -8.710938 6.976562 -7.617188 7.625 -6.546875 C 8.269531 -5.484375 9.175781 -4.597656 10.34375 -3.890625 C 11.507812 -3.191406 12.960938 -2.84375 14.703125 -2.84375 C 16.234375 -2.84375 17.640625 -2.976562 18.921875 -3.25 C 20.203125 -3.519531 21.328125 -3.96875 22.296875 -4.59375 L 22.296875 -50 L 40.296875 -50 L 40.296875 0 L 17.40625 0 C 14.9375 0 12.800781 -0.347656 11 -1.046875 C 9.195312 -1.742188 7.6875 -2.691406 6.46875 -3.890625 C 5.257812 -5.097656 4.285156 -6.441406 3.546875 -7.921875 C 2.816406 -9.410156 2.289062 -10.925781 1.96875 -12.46875 C 1.65625 -14.019531 1.5 -15.515625 1.5 -16.953125 Z M 1.5 -50 "/></g></g></g><g fill="#ffad6a" fill-opacity="1"><g transform="translate(186.798195, 244.186184)"><g><path d="M 0.75 -16.25 C 0.75 -17.8125 1.085938 -19.3125 1.765625 -20.75 C 2.453125 -22.1875 3.382812 -23.46875 4.5625 -24.59375 C 5.75 -25.726562 7.113281 -26.582031 8.65625 -27.15625 C 6.519531 -28.914062 4.773438 -30.921875 3.421875 -33.171875 C 2.078125 -35.421875 1.40625 -38 1.40625 -40.90625 C 1.40625 -41.90625 1.570312 -42.9375 1.90625 -44 C 2.238281 -45.0625 2.695312 -46.050781 3.28125 -46.96875 C 3.863281 -47.882812 4.507812 -48.617188 5.21875 -49.171875 C 5.9375 -49.722656 6.695312 -50 7.5 -50 L 40.046875 -50 C 40.347656 -49.46875 40.582031 -48.925781 40.75 -48.375 C 40.914062 -47.820312 41 -47.210938 41 -46.546875 C 41 -45.285156 40.710938 -44.15625 40.140625 -43.15625 C 39.578125 -42.15625 38.84375 -41.3125 37.9375 -40.625 C 37.039062 -39.9375 36.101562 -39.410156 35.125 -39.046875 C 34.144531 -38.679688 33.238281 -38.5 32.40625 -38.5 C 30.53125 -38.5 28.691406 -38.816406 26.890625 -39.453125 C 25.097656 -40.085938 23.359375 -40.867188 21.671875 -41.796875 C 19.992188 -42.734375 18.363281 -43.660156 16.78125 -44.578125 C 15.195312 -45.492188 13.671875 -46.265625 12.203125 -46.890625 C 10.734375 -47.523438 9.332031 -47.84375 8 -47.84375 C 7.664062 -47.84375 7.390625 -47.660156 7.171875 -47.296875 C 6.953125 -46.929688 6.84375 -46.613281 6.84375 -46.34375 C 6.84375 -45.175781 7.34375 -44.148438 8.34375 -43.265625 C 9.34375 -42.390625 10.691406 -41.59375 12.390625 -40.875 C 14.097656 -40.15625 16 -39.445312 18.09375 -38.75 C 20.195312 -38.050781 22.378906 -37.273438 24.640625 -36.421875 C 26.910156 -35.578125 29.09375 -34.585938 31.1875 -33.453125 C 33.289062 -32.316406 35.191406 -30.972656 36.890625 -29.421875 C 38.597656 -27.867188 39.953125 -26.035156 40.953125 -23.921875 C 41.953125 -21.804688 42.453125 -19.316406 42.453125 -16.453125 C 42.453125 -13.179688 41.691406 -10.226562 40.171875 -7.59375 C 38.660156 -4.96875 36.378906 -2.882812 33.328125 -1.34375 C 30.273438 0.1875 26.414062 0.96875 21.75 1 C 19.113281 1 16.546875 0.640625 14.046875 -0.078125 C 11.546875 -0.796875 9.296875 -1.878906 7.296875 -3.328125 C 5.296875 -4.773438 3.703125 -6.582031 2.515625 -8.75 C 1.335938 -10.914062 0.75 -13.414062 0.75 -16.25 Z M 36 -7.40625 C 36 -8.800781 35.441406 -10.097656 34.328125 -11.296875 C 33.210938 -12.492188 31.710938 -13.644531 29.828125 -14.75 C 27.941406 -15.851562 25.863281 -16.976562 23.59375 -18.125 C 21.332031 -19.269531 19.023438 -20.484375 16.671875 -21.765625 C 14.328125 -23.054688 12.117188 -24.484375 10.046875 -26.046875 C 10.078125 -24.953125 10.375 -23.632812 10.9375 -22.09375 C 11.507812 -20.5625 12.285156 -18.945312 13.265625 -17.25 C 14.253906 -15.550781 15.40625 -13.890625 16.71875 -12.265625 C 18.039062 -10.648438 19.484375 -9.175781 21.046875 -7.84375 C 22.617188 -6.507812 24.253906 -5.453125 25.953125 -4.671875 C 27.648438 -3.890625 29.382812 -3.5 31.15625 -3.5 C 32.613281 -3.5 33.785156 -3.890625 34.671875 -4.671875 C 35.554688 -5.453125 36 -6.363281 36 -7.40625 Z M 36 -7.40625 "/></g></g></g><g fill="#ffad6a" fill-opacity="1"><g transform="translate(229.991513, 244.186184)"><g><path d="M 1.5 0 L 1.5 -50 L 39.046875 -50 L 39.046875 -29.25 L 38.546875 -29.25 C 37.378906 -33.75 35.921875 -37.316406 34.171875 -39.953125 C 32.421875 -42.585938 30.335938 -44.53125 27.921875 -45.78125 C 25.503906 -47.03125 22.695312 -47.800781 19.5 -48.09375 L 19.5 -27.796875 C 20.164062 -27.992188 20.863281 -28.523438 21.59375 -29.390625 C 22.332031 -30.265625 23.015625 -31.332031 23.640625 -32.59375 C 24.273438 -33.863281 24.832031 -35.222656 25.3125 -36.671875 C 25.800781 -38.117188 26.128906 -39.546875 26.296875 -40.953125 L 26.796875 -40.953125 L 26.796875 -13.703125 L 26.296875 -13.703125 C 26.128906 -15.097656 25.800781 -16.519531 25.3125 -17.96875 C 24.832031 -19.425781 24.273438 -20.785156 23.640625 -22.046875 C 23.015625 -23.316406 22.332031 -24.382812 21.59375 -25.25 C 20.863281 -26.113281 20.164062 -26.644531 19.5 -26.84375 L 19.5 -1.953125 C 22.769531 -2.421875 25.726562 -3.601562 28.375 -5.5 C 31.019531 -7.394531 33.226562 -9.984375 35 -13.265625 C 36.769531 -16.554688 37.953125 -20.46875 38.546875 -25 L 39.046875 -25 L 39.046875 0 Z M 1.5 0 "/></g></g></g><path fill="#0cc0df" d="M 163.566406 156.003906 C 163.566406 152.878906 161.03125 150.34375 157.90625 150.34375 L 134.171875 150.34375 C 131.046875 150.34375 128.511719 152.878906 128.511719 156.003906 C 128.511719 159.128906 131.046875 161.664062 134.171875 161.664062 L 157.90625 161.664062 C 161.03125 161.664062 163.566406 159.128906 163.566406 156.003906 " fill-opacity="1" fill-rule="nonzero"/><path fill="#0cc0df" d="M 177.96875 170.289062 L 167.121094 170.289062 C 163.996094 170.289062 161.460938 172.824219 161.460938 175.949219 C 161.460938 179.074219 163.996094 181.609375 167.121094 181.609375 L 177.96875 181.609375 C 181.097656 181.609375 183.628906 179.074219 183.628906 175.949219 C 183.628906 172.824219 181.097656 170.289062 177.96875 170.289062 " fill-opacity="1" fill-rule="nonzero"/><g clip-path="url(#b3ae136f67)"><path fill="#0cc0df" d="M 229.742188 184.203125 C 225.359375 184.203125 221.199219 183.261719 217.441406 181.570312 C 212.078125 179.152344 207.542969 175.203125 204.402344 170.289062 C 202.722656 167.660156 201.445312 164.757812 200.644531 161.664062 C 200.027344 159.265625 199.699219 156.753906 199.699219 154.164062 C 199.699219 152.871094 199.777344 151.59375 199.9375 150.34375 C 200.324219 147.304688 201.167969 144.40625 202.398438 141.71875 C 204.433594 137.253906 207.535156 133.371094 211.375 130.402344 C 211.898438 129.992188 212.433594 129.609375 212.984375 129.234375 C 213.808594 128.679688 214.664062 128.164062 215.542969 127.691406 C 219.773438 125.410156 224.609375 124.117188 229.742188 124.117188 C 246.304688 124.117188 259.78125 137.59375 259.78125 154.164062 C 259.78125 170.726562 246.304688 184.203125 229.742188 184.203125 Z M 234.46875 118.621094 L 234.46875 112.375 C 236.617188 112.28125 238.335938 110.511719 238.335938 108.335938 C 238.335938 106.101562 236.523438 104.292969 234.289062 104.292969 L 225.1875 104.292969 C 222.957031 104.292969 221.144531 106.101562 221.144531 108.335938 C 221.144531 110.511719 222.863281 112.28125 225.011719 112.375 L 225.011719 118.621094 C 216.261719 119.777344 208.496094 124.105469 202.914062 130.402344 L 115.316406 130.402344 C 112.199219 130.402344 109.527344 132.835938 109.46875 135.953125 C 109.410156 139.128906 111.96875 141.71875 115.132812 141.71875 L 196.113281 141.71875 C 195.097656 144.457031 194.410156 147.34375 194.09375 150.34375 L 174.25 150.34375 C 171.132812 150.34375 168.460938 152.78125 168.402344 155.898438 C 168.347656 159.074219 170.902344 161.664062 174.0625 161.664062 L 194.679688 161.664062 C 195.324219 164.695312 196.359375 167.589844 197.726562 170.289062 L 191.890625 170.289062 C 188.765625 170.289062 186.230469 172.824219 186.230469 175.949219 C 186.230469 177.511719 186.863281 178.925781 187.886719 179.949219 C 188.914062 180.976562 190.328125 181.609375 191.890625 181.609375 L 206.699219 181.609375 C 212.9375 186.851562 220.980469 190.011719 229.742188 190.011719 C 249.507812 190.011719 265.589844 173.929688 265.589844 154.164062 C 265.589844 135.992188 252.007812 120.941406 234.46875 118.621094 " fill-opacity="1" fill-rule="nonzero"/></g><path fill="#0cc0df" d="M 230.675781 149.527344 C 230.375 149.464844 230.0625 149.433594 229.742188 149.433594 C 227.128906 149.433594 225.011719 151.550781 225.011719 154.160156 C 225.011719 156.769531 227.128906 158.886719 229.742188 158.886719 C 232.347656 158.886719 234.46875 156.769531 234.46875 154.160156 C 234.46875 153.671875 234.394531 153.203125 234.253906 152.757812 L 238.234375 147.113281 L 245.78125 136.398438 L 235.824219 145.050781 L 230.675781 149.527344 " fill-opacity="1" fill-rule="nonzero"/></svg>